<svg xmlns="http://www.w3.org/2000/svg" viewBox="0 0 24 24" fill="none" stroke="currentColor" stroke-width="1.75" stroke-linecap="round" stroke-linejoin="round"><g transform="matrix(1.453 0 0 1.453 -5.436 -4.927)"><path d="m6.208 14.77-0.045-6.252c-0.008438-0.93 0.6478-1.59 1.522-1.606 0.6262-0.01219 1.283-0.01688 1.95-0.008438 0.6806 0.009375 1.215 0.2672 1.533 0.9169 0.2869 0.5869 0.7734 0.7303 1.412 0.7322 1.238 0.00375 2.477-0.02062 3.715-0.01969 0.9956 9.375e-4 1.541 0.5025 1.521 1.474l-0.06 4.73c-0.01406 0.9844-0.6253 1.585-1.661 1.607-2.762 0.05719-5.526 0.02344-8.288 0.0225-0.9862 0-1.57-0.675-1.578-1.575z" stroke-width="1.204"/></g></svg>
